<?xml version="1.0" standalone="no"?>
<!DOCTYPE svg PUBLIC "-//W3C//DTD SVG 20010904//EN"
 "http://www.w3.org/TR/2001/REC-SVG-20010904/DTD/svg10.dtd">
<svg version="1.0" xmlns="http://www.w3.org/2000/svg"
 width="765.000000pt" height="765.000000pt" viewBox="0 0 765.000000 765.000000"
 preserveAspectRatio="xMidYMid meet">
<metadata>
Created by potrace 1.11, written by Peter Selinger 2001-2013
</metadata>
<g transform="translate(0.000000,765.000000) scale(0.100000,-0.100000)"
fill="#000000" stroke="none">
<path d="M3661 7629 c-13 -5 -58 -12 -100 -15 -141 -11 -147 -12 -336 -44
-128 -23 -214 -50 -438 -136 -122 -48 -234 -93 -250 -100 -51 -27 -456 -374
-561 -483 -47 -48 -50 -49 -63 -31 -20 29 -36 25 -29 -6 l7 -27 -58 6 c-32 3
-88 9 -125 13 -40 4 -68 3 -68 -2 0 -5 41 -32 90 -58 50 -27 90 -52 90 -56 0
-4 -70 -74 -156 -156 -86 -82 -163 -163 -173 -180 -19 -35 -99 -159 -227 -352
-50 -75 -124 -191 -165 -257 l-74 -119 0 -301 0 -300 58 -244 57 -243 -9 -227
c-5 -124 -6 -246 -2 -271 9 -61 -3 -81 -73 -121 -40 -23 -62 -43 -67 -59 -4
-14 -7 -114 -8 -222 l-1 -197 106 -308 c135 -393 191 -535 218 -554 5 -4 6
-11 2 -17 -3 -6 3 -17 14 -25 12 -8 18 -21 15 -29 -3 -8 1 -21 10 -28 8 -7 15
-23 15 -36 0 -12 8 -29 19 -36 10 -7 26 -28 35 -46 9 -18 28 -37 41 -42 14 -5
25 -16 25 -25 0 -9 9 -15 21 -15 12 0 36 -16 54 -35 27 -28 44 -36 96 -44 35
-6 82 -12 103 -13 l40 -3 12 -65 c7 -36 42 -186 78 -333 l66 -268 129 -277
130 -277 113 -129 c62 -71 154 -175 204 -231 l91 -101 134 -58 c74 -32 240
-118 369 -190 l235 -133 230 -58 c127 -31 247 -57 269 -56 21 0 135 13 254 27
l216 25 197 78 c169 67 212 88 296 148 54 38 173 123 266 188 92 65 167 122
167 127 0 16 -30 8 -42 -12 -8 -12 -28 -23 -51 -27 -27 -4 -41 -12 -47 -28
-11 -30 -67 -75 -101 -82 -16 -3 -34 -12 -40 -19 -6 -8 -20 -14 -30 -14 -11 0
-27 -8 -37 -18 -9 -9 -25 -16 -35 -14 -10 2 -44 -8 -75 -23 -44 -21 -60 -25
-74 -16 -9 6 -24 8 -32 5 -8 -3 -17 -1 -21 5 -9 15 -21 14 -39 -5 -10 -9 -16
-11 -16 -4 0 7 -6 5 -16 -4 -22 -23 -64 -21 -64 3 0 10 -6 21 -13 24 -15 6
-67 -36 -67 -55 0 -8 -4 -7 -11 4 -5 9 -16 15 -23 12 -25 -9 -28 16 -7 50 30
49 27 57 -20 54 -32 -1 -43 -7 -49 -24 -10 -25 -40 -35 -64 -22 -17 10 -49 -2
-46 -18 3 -15 -17 -15 -33 0 -8 9 -13 25 -10 36 4 15 0 20 -16 20 -14 0 -21
-6 -21 -20 0 -33 -33 -23 -65 21 -19 26 -36 39 -46 36 -14 -4 -15 0 -10 22 5
18 15 27 33 29 22 3 25 0 21 -22 -5 -22 -2 -26 20 -26 31 0 51 23 44 51 -3 12
-1 33 4 46 7 19 6 30 -6 43 -17 19 -3 40 27 40 10 0 18 7 18 15 0 13 -4 14
-21 4 -31 -16 -48 4 -26 29 21 23 21 32 1 32 -12 0 -14 3 -6 13 6 6 12 26 14
42 3 26 9 31 43 39 49 12 47 10 39 30 -4 11 -16 15 -33 14 -23 -3 -26 1 -29
29 -3 25 -8 33 -23 33 -15 0 -19 -5 -15 -17 7 -23 -8 -48 -23 -38 -7 4 -19 1
-27 -6 -19 -16 -94 18 -94 43 0 16 -14 31 -32 34 -5 1 -11 2 -15 3 -5 1 0 8
11 16 13 10 17 21 12 38 -8 32 -1 37 35 24 34 -13 37 -27 8 -34 -14 -4 -19
-12 -16 -24 3 -10 0 -20 -7 -23 -6 -2 8 -5 31 -5 34 -1 41 2 37 14 -4 9 0 15
10 15 23 0 20 37 -4 43 -27 7 -35 33 -20 63 16 30 37 31 66 3 l23 -21 13 21
c7 12 20 21 28 21 28 0 51 25 59 60 5 28 11 34 27 32 13 -2 25 6 34 24 14 25
13 28 -15 50 -26 21 -39 24 -97 22 -44 -1 -72 3 -83 12 -12 10 -18 11 -24 2
-8 -14 -96 -9 -148 9 -37 12 -65 39 -40 39 26 0 86 34 87 48 0 9 5 10 17 4 23
-13 58 4 111 54 29 28 41 46 36 58 -8 22 -15 20 -39 -11 -14 -16 -26 -23 -34
-19 -10 6 -9 12 2 24 8 10 17 25 20 35 5 12 15 18 29 16 13 -1 36 3 51 9 16 7
36 12 45 12 9 1 28 7 42 15 14 8 40 14 58 15 18 0 50 9 72 20 43 22 70 26 70
10 0 -17 45 -11 68 10 25 24 50 26 58 5 4 -8 12 -15 19 -15 8 0 22 -11 33 -25
24 -30 36 -31 54 -7 7 11 24 21 38 25 14 3 43 12 65 20 25 10 44 12 49 6 6 -5
22 -9 37 -9 15 0 31 -4 34 -10 3 -5 14 -10 25 -10 10 0 20 -7 24 -15 3 -8 16
-15 30 -15 19 0 23 -4 19 -19 -3 -12 3 -24 16 -33 30 -21 13 -30 -20 -11 -33
19 -49 11 -31 -17 10 -16 8 -20 -8 -25 -11 -4 -20 -13 -20 -20 0 -24 18 -26
34 -3 12 17 18 20 28 10 7 -7 22 -12 35 -12 20 0 23 5 23 35 0 20 8 43 18 53
37 40 52 63 47 72 -3 6 4 31 16 57 21 46 24 64 32 181 3 40 1 50 -8 42 -6 -5
-15 -7 -18 -3 -12 11 -8 23 7 23 22 0 31 21 13 31 -17 10 -47 64 -47 84 0 7
-9 15 -19 18 -15 4 -18 1 -14 -12 3 -9 10 -21 15 -28 6 -7 7 -16 4 -22 -4 -5
1 -16 9 -24 20 -21 19 -29 -7 -57 -12 -13 -23 -35 -24 -50 -2 -14 -3 -28 -3
-32 -2 -18 -30 -6 -64 27 -56 54 -79 49 -128 -30 -24 -38 -48 -65 -58 -65 -9
0 -22 -5 -27 -10 -6 -6 -28 -11 -50 -13 -21 -1 -50 -10 -64 -20 -32 -23 -46
-22 -64 5 -12 17 -16 18 -16 7 0 -12 -7 -15 -27 -11 -16 2 -34 9 -40 15 -9 7
-13 5 -13 -7 0 -16 -2 -16 -30 1 -27 16 -32 16 -40 3 -5 -8 -10 -10 -10 -5 0
17 -52 35 -102 35 -37 0 -50 4 -58 20 -8 16 -21 20 -59 20 -31 0 -53 5 -61 15
-12 15 -45 22 -37 8 3 -5 1 -18 -4 -30 -7 -21 -15 -23 -72 -23 -63 0 -97 16
-109 51 -3 9 -9 9 -26 0 -16 -8 -27 -9 -42 -1 -16 8 -22 8 -26 -4 -3 -8 -12
-12 -20 -9 -8 3 -12 9 -9 13 8 13 -21 31 -39 24 -12 -5 -16 0 -16 21 0 18 -6
29 -20 32 -14 4 -20 14 -20 32 1 25 1 25 15 7 20 -27 31 -12 18 24 -6 17 -7
30 -3 30 5 0 18 9 28 21 17 17 20 18 25 5 10 -24 25 -19 42 14 9 17 11 30 5
30 -10 0 -9 3 21 62 9 17 9 23 0 26 -16 5 -14 22 4 22 8 0 15 -7 15 -15 0 -8
5 -15 10 -15 6 0 10 -6 10 -13 0 -22 24 -67 36 -67 20 0 25 -44 8 -57 -10 -7
-14 -19 -10 -29 4 -11 -3 -27 -20 -45 -37 -38 -27 -64 22 -56 25 4 37 2 41 -9
6 -16 36 -18 64 -4 10 6 35 11 54 12 19 1 35 5 35 10 0 5 -4 6 -10 3 -19 -11
-10 7 12 26 23 21 18 40 -6 20 -11 -9 -15 -8 -19 3 -7 18 3 59 17 69 7 4 -10
27 -45 60 -41 39 -58 62 -63 90 -6 33 -5 37 13 37 28 0 36 18 17 39 -9 10 -16
23 -16 30 0 7 -4 9 -10 6 -5 -3 -10 -15 -10 -26 0 -10 -7 -19 -15 -19 -8 0
-15 7 -15 15 0 11 -11 15 -41 15 -32 0 -40 -3 -35 -15 4 -10 -1 -15 -14 -15
-11 0 -20 -5 -20 -11 0 -8 -5 -7 -15 1 -9 7 -14 18 -12 24 7 18 -12 46 -31 46
-10 0 -29 13 -44 30 -30 34 -42 80 -22 80 8 0 14 3 14 6 0 10 -50 54 -61 54
-6 0 -5 8 1 21 9 17 8 23 -6 34 -16 11 -16 13 7 25 13 7 25 14 27 15 4 4 -18
44 -37 67 -12 16 -11 21 12 42 15 14 27 28 27 31 0 10 -19 5 -34 -11 -9 -8
-20 -12 -26 -9 -16 10 -12 45 5 45 8 0 33 18 56 41 35 35 40 45 33 67 -4 15
-9 32 -9 37 -1 6 -5 17 -9 26 -4 10 1 30 13 50 19 30 19 33 3 45 -16 11 -15
14 6 32 20 17 22 24 12 42 -8 16 -8 25 0 35 8 10 6 17 -12 29 -21 15 -21 16
-4 29 15 11 16 17 7 34 -15 29 -16 100 0 156 12 44 11 49 -10 71 -14 15 -24
42 -28 75 -5 47 -9 54 -35 63 -29 10 -39 38 -13 38 12 0 13 4 5 19 -5 11 -10
38 -10 60 0 33 -4 41 -18 41 -28 0 -33 10 -17 34 18 25 19 53 0 86 l-13 25 -7
-28 c-9 -34 -27 -35 -45 -2 -7 14 -17 25 -22 25 -4 0 -8 7 -8 15 0 26 -31 65
-51 65 -11 0 -19 -4 -19 -10 0 -5 -4 -10 -10 -10 -5 0 -7 13 -4 29 5 24 2 30
-16 36 -12 4 -24 4 -27 1 -3 -3 -19 4 -34 15 -21 14 -29 29 -29 49 0 25 -5 31
-40 41 -46 14 -48 20 -18 61 20 29 20 32 4 44 -10 7 -26 27 -35 46 -10 18 -27
34 -39 36 -11 2 -28 12 -38 23 -9 10 -25 19 -36 19 -24 0 -23 17 2 25 11 3 20
9 20 13 -1 12 -24 36 -48 50 -22 12 -24 11 -35 -17 -9 -25 -16 -30 -32 -25
-25 8 -37 26 -25 38 17 17 11 36 -12 45 -13 5 -23 17 -23 27 0 24 -60 43 -78
25 -9 -9 -9 -14 3 -21 12 -8 10 -10 -7 -10 -13 0 -23 5 -23 11 0 6 -9 9 -19 6
-13 -3 -21 1 -24 14 -4 14 0 19 16 19 11 0 38 8 59 17 48 21 51 50 7 65 -50
17 -34 38 70 88 23 10 26 32 5 30 -43 -5 -48 -1 -26 23 12 13 22 31 22 40 0 9
5 17 10 17 6 0 10 -4 10 -10 0 -13 27 -13 35 0 4 6 1 18 -6 26 -10 12 -9 20 1
40 12 21 12 31 0 62 -7 20 -18 40 -24 44 -6 4 1 11 17 17 32 12 38 42 7 34
-12 -3 -22 1 -26 11 -3 9 -14 16 -24 16 -12 0 -21 10 -25 31 -4 17 -5 32 -3
34 8 9 50 -28 58 -51 5 -13 13 -24 18 -24 14 0 33 51 27 71 -8 25 3 24 23 -1
16 -19 21 -20 70 -10 50 11 63 22 42 35 -22 13 -8 23 24 18 19 -3 36 -1 40 6
12 19 26 12 26 -14 0 -14 5 -25 11 -25 5 0 7 4 4 10 -3 5 10 16 29 24 23 10
35 22 38 38 2 19 8 22 33 20 17 -2 32 -8 33 -13 2 -5 11 -17 20 -25 14 -15 16
-15 24 5 4 11 14 21 23 21 12 0 14 4 5 19 -13 25 1 35 36 27 24 -6 26 -4 28
39 1 18 7 20 57 17 41 -3 59 0 68 12 8 9 23 16 35 16 12 0 27 5 34 12 8 8 15
8 28 -2 22 -19 89 -21 121 -5 14 7 39 11 57 8 27 -4 36 1 69 41 21 25 44 46
51 46 8 0 16 9 19 20 5 20 27 28 27 10 0 -5 14 -10 30 -10 17 0 30 5 30 10 0
6 -12 10 -26 10 -21 0 -23 2 -12 13 8 7 38 12 78 11 38 0 69 4 76 11 8 7 63
15 140 19 119 6 129 5 149 -14 23 -21 45 -26 45 -10 0 15 22 12 68 -10 22 -11
47 -20 55 -20 8 0 20 -7 27 -15 7 -8 18 -15 24 -15 6 0 28 -11 48 -25 20 -14
44 -25 54 -25 9 0 38 -16 65 -36 41 -30 58 -36 104 -37 30 -1 55 -4 55 -8 0
-4 10 -9 23 -12 12 -2 30 -8 40 -12 13 -5 17 -2 17 14 0 14 6 21 20 21 11 0
20 -6 20 -12 0 -16 55 -48 81 -48 10 0 19 7 19 15 0 8 7 15 15 15 18 0 20 -26
4 -36 -8 -4 -6 -10 7 -17 14 -8 21 -6 32 11 24 36 72 22 72 -20 0 -23 9 -23
25 -1 11 15 15 15 29 4 9 -7 14 -17 11 -21 -3 -4 2 -10 10 -14 10 -3 14 -18
13 -43 -1 -48 10 -85 24 -77 8 5 9 -8 4 -44 -5 -38 -3 -54 9 -65 8 -9 13 -22
10 -29 -3 -8 3 -22 14 -32 16 -14 18 -23 10 -37 -11 -22 -4 -39 17 -39 8 0 14
-7 14 -15 0 -8 -4 -15 -10 -15 -16 0 -12 -19 10 -42 11 -12 20 -36 20 -52 0
-17 8 -45 19 -61 10 -17 21 -52 25 -79 11 -69 15 -76 45 -77 15 -1 19 -3 9 -6
-10 -2 -15 -10 -11 -19 3 -7 9 -12 13 -9 9 6 40 -50 40 -70 0 -7 10 -15 21
-18 14 -4 20 -11 16 -20 -7 -18 52 -107 92 -138 24 -20 31 -34 36 -79 3 -30
10 -60 16 -66 5 -7 7 -23 4 -36 -3 -13 -1 -37 5 -53 15 -39 30 -159 35 -280
16 -358 18 -438 17 -592 0 -95 3 -173 8 -173 10 0 20 52 20 114 0 28 7 59 14
69 7 9 14 45 15 78 1 50 5 64 24 80 12 10 18 18 12 19 -6 0 -9 25 -7 61 2 33
-1 72 -7 87 -8 20 -7 54 5 132 8 58 16 114 18 125 1 11 5 27 9 35 12 31 27 96
27 122 0 20 4 26 15 22 10 -4 16 3 21 23 4 15 15 38 26 49 13 15 16 24 9 29
-14 8 -4 25 14 25 27 0 64 49 70 95 4 25 11 45 16 45 16 0 10 30 -12 59 -19
26 -20 33 -9 66 9 26 10 62 4 123 -5 48 -7 94 -6 102 4 23 -19 313 -26 330 -3
8 -4 78 -3 155 2 106 -1 151 -13 185 -19 53 -21 111 -4 128 9 9 8 22 -1 54
-21 70 -27 81 -64 126 -27 32 -37 55 -42 96 -4 30 -4 63 0 75 4 13 1 27 -10
37 -9 9 -14 23 -11 30 3 8 -4 44 -15 80 -14 47 -19 78 -14 103 9 44 16 91 16
111 2 59 -11 252 -18 262 -4 7 -6 23 -4 35 1 13 -6 35 -17 50 -10 16 -17 34
-15 40 3 7 -2 16 -10 19 -8 3 -23 24 -33 47 -10 23 -33 59 -51 80 -20 22 -33
48 -33 64 0 29 -110 199 -173 267 -19 21 -41 45 -48 53 -29 31 -114 103 -123
103 -5 0 -18 10 -30 23 -88 91 -225 158 -496 241 -118 37 -276 88 -350 113
-133 45 -451 129 -825 217 -191 46 -289 56 -344 35z m1454 -2288 c0 -8 -10
-16 -22 -17 -13 -2 -23 1 -23 6 0 6 6 10 13 10 8 0 7 4 -3 11 -12 8 -10 9 10
7 14 -2 25 -9 25 -17z m-1731 -147 c9 -3 13 -10 10 -15 -9 -15 -51 -10 -58 6
-6 16 18 20 48 9z m-259 -63 c-3 -6 -13 -11 -21 -11 -8 0 -14 -5 -14 -12 0 -6
-3 -8 -7 -4 -4 4 3 16 17 26 25 19 37 19 25 1z m-115 -231 c0 -5 -4 -10 -10
-10 -5 0 -10 5 -10 10 0 6 5 10 10 10 6 0 10 -4 10 -10z m70 -20 c0 -5 -4 -10
-10 -10 -5 0 -10 5 -10 10 0 6 5 10 10 10 6 0 10 -4 10 -10z m-189 -323 c-10
-9 -11 -8 -5 6 3 10 9 15 12 12 3 -3 0 -11 -7 -18z m119 -100 c0 -22 -26 -51
-38 -43 -18 11 -14 34 6 45 23 14 32 13 32 -2z m14 -56 c3 -5 -1 -11 -9 -14
-9 -4 -12 -1 -8 9 6 16 10 17 17 5z m26 -355 c7 -9 18 -16 25 -16 8 0 16 -6
19 -12 3 -7 3 -3 0 9 -4 19 -2 22 13 16 10 -4 21 -11 24 -15 3 -5 22 -10 42
-11 30 -2 36 -5 31 -20 -9 -29 15 -87 37 -87 12 0 26 -15 39 -42 27 -57 26
-78 -5 -78 -29 0 -32 -12 -9 -34 8 -9 13 -20 9 -26 -7 -11 13 -49 34 -66 8 -6
11 -18 8 -28 -4 -9 -2 -16 3 -16 6 0 10 -9 10 -20 0 -11 -4 -20 -10 -20 -5 0
-10 -5 -10 -11 0 -5 5 -7 10 -4 6 3 10 -1 10 -9 0 -10 -9 -16 -21 -16 -18 0
-20 4 -14 30 5 21 3 30 -6 30 -13 0 -89 76 -89 89 0 5 -8 11 -17 14 -10 4 -36
17 -58 30 -22 13 -62 29 -90 35 -75 17 -244 35 -295 32 -130 -10 -144 -7 -161
26 -12 24 -18 29 -25 19 -5 -7 -20 -16 -34 -20 -17 -4 -21 -3 -11 3 11 8 10
11 -4 20 -11 6 -16 16 -12 26 5 13 10 14 33 4 22 -10 28 -10 32 0 2 6 8 12 13
12 18 0 58 54 48 66 -5 7 1 19 17 33 22 19 30 21 51 12 33 -15 46 -14 39 5 -3
9 -2 12 5 9 6 -4 17 1 24 11 8 11 15 15 15 10 0 -5 7 -3 15 4 12 10 16 9 21
-4 9 -22 31 -20 39 4 3 11 9 20 13 20 67 4 137 12 140 15 6 6 36 -11 52 -29z
m160 9 c0 -8 -4 -15 -10 -15 -5 0 -10 7 -10 15 0 8 5 15 10 15 6 0 10 -7 10
-15z m120 -150 c0 -8 -4 -15 -10 -15 -5 0 -7 7 -4 15 4 8 8 15 10 15 2 0 4 -7
4 -15z m-790 -95 c0 -5 -5 -10 -11 -10 -5 0 -7 5 -4 10 3 6 8 10 11 10 2 0 4
-4 4 -10z m489 -99 c48 -25 58 -38 69 -87 6 -28 6 -46 -3 -57 -13 -18 -109
-57 -141 -57 -25 0 -36 20 -23 41 15 24 10 37 -18 51 -24 11 -28 20 -28 53 0
33 3 40 20 40 11 1 32 8 45 18 31 21 33 21 79 -2z m91 -271 c0 -5 -8 -10 -17
-10 -15 0 -16 2 -3 10 19 12 20 12 20 0z m174 -6 c18 -7 21 -36 6 -65 -8 -15
-7 -19 4 -19 8 0 16 6 19 13 2 6 8 8 13 4 5 -4 2 -12 -5 -16 -7 -5 -11 -14 -7
-19 4 -6 -3 -16 -14 -22 -11 -6 -20 -17 -20 -24 0 -13 -57 -66 -71 -66 -4 0
-11 5 -14 10 -3 6 -14 10 -23 10 -16 -1 -16 -2 1 -14 22 -17 22 -46 -1 -46
-30 0 -44 -21 -24 -36 15 -12 13 -13 -15 -14 -17 0 -35 -4 -38 -10 -3 -5 -22
-10 -41 -10 -41 0 -44 -11 -7 -31 20 -11 27 -11 30 -1 6 15 25 15 58 0 24 -11
36 -48 15 -48 -5 0 -10 5 -10 10 0 6 -9 10 -21 10 -14 0 -24 -10 -32 -30 -6
-16 -15 -30 -20 -30 -5 0 -6 8 -2 18 3 9 7 21 8 27 3 15 -45 18 -54 3 -5 -7
-14 -13 -21 -13 -7 0 -17 -16 -22 -35 -5 -19 -13 -37 -17 -40 -4 -3 -9 -16
-10 -30 -3 -20 1 -26 19 -28 17 -3 22 2 23 20 0 13 3 18 5 11 3 -7 11 -10 18
-7 15 6 69 -40 59 -49 -3 -4 1 -7 10 -7 29 0 19 -26 -15 -41 -22 -9 -33 -21
-33 -34 0 -14 -8 -21 -25 -23 -37 -6 -51 -21 -40 -42 15 -27 12 -38 -10 -45
-11 -3 -20 -13 -20 -22 0 -12 9 -14 40 -11 24 2 40 -1 40 -7 0 -6 -12 -12 -27
-13 -44 -3 -82 -25 -88 -49 -5 -23 -35 -33 -35 -12 0 8 -4 8 -14 0 -11 -9 -15
-9 -18 1 -4 11 -9 11 -29 0 -45 -24 -69 -8 -69 46 0 20 5 32 13 32 21 0 28
-12 16 -26 -22 -27 -4 -34 34 -14 31 17 37 17 37 5 0 -17 27 -20 50 -5 12 7
11 10 -5 16 -17 6 -55 41 -55 50 0 19 17 34 39 34 36 0 48 10 56 45 6 27 5 28
-8 13 -17 -22 -37 -23 -62 -4 -18 13 -18 14 3 20 12 4 19 13 16 21 -3 7 -1 16
5 20 6 3 11 25 11 48 0 32 6 46 27 64 l26 23 -36 0 c-20 0 -39 5 -42 10 -12
19 -23 10 -36 -27 -9 -28 -9 -38 0 -41 6 -2 11 -12 11 -23 0 -10 5 -19 10 -19
6 0 10 -7 10 -16 0 -12 -6 -15 -26 -10 -22 6 -25 4 -19 -14 5 -14 2 -20 -9
-20 -19 0 -21 -16 -3 -23 8 -3 9 -8 1 -16 -7 -8 -16 -6 -32 9 -11 11 -25 20
-31 20 -5 0 -11 4 -13 9 -1 4 -12 11 -24 15 -16 5 -23 0 -34 -29 -15 -39 -32
-47 -30 -12 4 43 0 56 -19 62 -27 8 -33 41 -9 57 22 14 16 48 -8 48 -10 0 -14
-9 -12 -26 2 -16 -3 -29 -10 -32 -10 -3 -13 4 -10 24 2 22 -2 31 -19 39 l-21
9 26 23 c31 26 42 29 42 9 0 -9 9 -12 28 -9 54 9 59 14 30 29 -31 16 -34 26
-14 43 19 16 58 -3 50 -23 -3 -8 5 -21 18 -30 27 -19 39 -20 37 -3 -6 45 32
42 51 -4 10 -23 15 -27 26 -18 17 14 18 41 2 57 -9 9 -9 12 0 12 16 0 15 27 0
33 -10 4 -10 7 0 18 10 11 12 10 12 -3 0 -17 30 -29 61 -23 15 3 19 -2 19 -26
0 -18 4 -28 10 -24 6 3 10 28 10 56 0 27 5 49 10 49 18 0 11 29 -10 42 -11 7
-20 23 -20 35 0 23 -23 32 -35 13 -3 -5 -19 -10 -36 -10 -38 0 -40 -32 -3 -49
22 -10 24 -14 13 -27 -12 -14 -14 -14 -19 -1 -7 21 -58 77 -69 77 -5 0 -9 -6
-8 -12 1 -44 -2 -47 -30 -32 -16 8 -44 17 -64 20 -36 6 -47 26 -27 51 6 7 5
19 -2 33 -19 35 5 53 33 26 23 -23 73 -6 69 24 -2 19 2 22 23 18 19 -4 29 0
36 14 6 11 17 17 25 14 9 -4 12 -2 8 5 -4 6 -19 8 -36 5 -26 -5 -29 -4 -18 9
7 8 23 15 36 15 19 0 23 5 21 22 -3 28 22 34 64 16 21 -9 29 -18 25 -30 -2
-11 1 -18 10 -18 8 0 14 -7 14 -15 0 -23 31 -18 37 6 4 13 8 16 13 9 5 -8 11
-6 20 5 10 12 10 15 -4 15 -9 0 -16 2 -16 4 0 2 -3 12 -7 21 -5 15 -3 16 17 5
12 -6 40 -10 61 -8 37 3 39 2 45 -28 4 -23 15 -35 40 -48 47 -22 57 -21 44 4
-9 17 -6 24 16 45 15 14 33 25 40 25 17 0 18 17 2 23 -9 4 -9 6 -1 6 6 1 18
-2 27 -5z m-87 -10 c-3 -3 -12 -4 -19 -1 -8 3 -5 6 6 6 11 1 17 -2 13 -5z
m-488 -58 c9 -11 7 -15 -10 -19 -11 -3 -18 -3 -15 1 4 3 -4 12 -16 19 l-23 12
26 1 c15 0 32 -6 38 -14z m-9 -46 c0 -5 -4 -10 -10 -10 -5 0 -10 5 -10 10 0 6
5 10 10 10 6 0 10 -4 10 -10z m-220 -460 c0 -5 -2 -10 -4 -10 -3 0 -8 5 -11
10 -3 6 -1 10 4 10 6 0 11 -4 11 -10z m660 -46 c0 -17 -22 -14 -28 4 -2 7 3
12 12 12 9 0 16 -7 16 -16z m-540 -39 c0 -8 -2 -15 -4 -15 -2 0 -6 7 -10 15
-3 8 -1 15 4 15 6 0 10 -7 10 -15z m130 -50 c0 -8 -4 -15 -9 -15 -5 0 -14 7
-21 15 -10 13 -9 15 9 15 12 0 21 -6 21 -15z m-151 -22 c0 -25 -1 -25 -8 -8
-5 11 -7 23 -4 28 8 14 13 7 12 -20z m48 -9 c-3 -3 -12 -4 -19 -1 -8 3 -5 6 6
6 11 1 17 -2 13 -5z m43 -28 c0 -15 -14 -35 -21 -30 -15 9 -10 34 6 34 8 0 15
-2 15 -4z m-68 -78 c-7 -7 -12 -8 -12 -2 0 6 3 14 7 17 3 4 9 5 12 2 2 -3 -1
-11 -7 -17z m1078 -28 c0 -5 -4 -10 -10 -10 -5 0 -10 5 -10 10 0 6 5 10 10 10
6 0 10 -4 10 -10z m-844 -29 c12 -9 24 -26 26 -37 2 -13 12 -19 28 -19 23 0
25 -4 28 -49 3 -47 8 -58 45 -96 15 -14 16 -22 8 -38 -19 -35 -14 -45 19 -38
35 6 39 -4 9 -22 -15 -10 -19 -20 -15 -37 3 -13 1 -27 -5 -31 -8 -5 -8 -8 0
-14 9 -5 8 -10 -4 -20 -12 -10 -15 -10 -15 4 0 20 -14 21 -30 1 -9 -10 -17
-12 -30 -5 -14 7 -19 5 -23 -10 -3 -11 -12 -20 -21 -20 -9 0 -16 -4 -16 -10 0
-15 -21 -12 -40 5 -21 19 -80 31 -80 16 0 -6 -8 -11 -18 -11 -16 0 -32 21 -48
63 -8 21 -23 22 -30 2 -11 -28 -26 -16 -20 15 3 17 9 43 12 59 4 21 13 31 32
35 42 9 56 22 47 42 -5 13 -9 15 -12 7 -3 -7 -13 -13 -23 -13 -12 0 -20 10
-24 34 -5 28 -2 39 19 62 14 15 25 31 25 35 0 5 7 9 15 9 11 0 15 8 13 28 -2
22 1 28 22 31 14 1 36 11 50 22 31 23 30 23 56 0z m-236 -306 c0 -9 -6 -12
-15 -9 -8 4 -15 10 -15 15 0 5 7 9 15 9 8 0 15 -7 15 -15z m1250 -21 c0 -8 -5
-12 -10 -9 -6 4 -8 11 -5 16 9 14 15 11 15 -7z m-929 -135 c-12 -11 -21 -24
-21 -29 0 -6 -7 -10 -16 -10 -24 0 -13 43 15 57 34 16 47 5 22 -18z m215 -6
c-10 -10 -19 5 -10 18 6 11 8 11 12 0 2 -7 1 -15 -2 -18z m654 7 c0 -5 -7 -10
-16 -10 -8 0 -12 5 -9 10 3 6 10 10 16 10 5 0 9 -4 9 -10z m-937 -7 c-7 -2
-19 -2 -25 0 -7 3 -2 5 12 5 14 0 19 -2 13 -5z m74 -275 c-3 -8 -6 -5 -6 6 -1
11 2 17 5 13 3 -3 4 -12 1 -19z m1353 -18 c0 -5 -4 -10 -10 -10 -5 0 -10 5
-10 10 0 6 5 10 10 10 6 0 10 -4 10 -10z m-1428 -76 c-7 -12 -4 -24 11 -40 20
-24 67 -33 67 -14 0 6 5 10 12 10 9 0 9 -3 0 -12 -23 -23 -11 -118 14 -118 17
0 19 -17 3 -22 -6 -2 -11 -26 -11 -56 0 -49 -2 -51 -23 -46 -19 5 -22 2 -22
-20 0 -14 3 -26 8 -26 5 0 9 -5 9 -10 0 -6 -8 -5 -20 2 -11 7 -20 18 -20 25 0
7 -12 13 -26 13 -19 0 -25 -4 -20 -15 4 -11 -1 -15 -19 -15 -19 0 -23 4 -18
18 4 9 15 26 25 36 10 11 18 24 18 29 0 10 -29 -10 -42 -28 -4 -5 -10 -6 -14
-2 -4 4 1 16 10 26 14 15 16 29 11 64 -4 29 -3 47 4 51 6 4 11 16 11 27 0 10
4 19 9 19 6 0 8 27 6 60 -3 48 -1 60 11 60 11 0 13 -4 6 -16z m1335 -100 c-3
-3 -12 -4 -19 -1 -8 3 -5 6 6 6 11 1 17 -2 13 -5z m-389 -272 c2 -7 -2 -10
-12 -6 -9 3 -16 11 -16 16 0 13 23 5 28 -10z m221 -209 c-16 -2 -29 -12 -32
-24 -6 -22 -27 -26 -27 -4 0 8 -4 15 -10 15 -5 0 -10 -7 -10 -15 0 -8 -9 -15
-20 -15 -11 0 -20 4 -20 10 0 16 62 38 105 38 26 -1 31 -2 14 -5z m-19 -443
c0 -5 -4 -10 -9 -10 -6 0 -13 5 -16 10 -3 6 1 10 9 10 9 0 16 -4 16 -10z m120
-140 c0 -5 -5 -10 -11 -10 -5 0 -7 5 -4 10 3 6 8 10 11 10 2 0 4 -4 4 -10z"/>
<path d="M2630 3840 c0 -5 5 -10 11 -10 5 0 7 5 4 10 -3 6 -8 10 -11 10 -2 0
-4 -4 -4 -10z"/>
<path d="M3235 3750 c-3 -5 -1 -10 4 -10 6 0 11 5 11 10 0 6 -2 10 -4 10 -3 0
-8 -4 -11 -10z"/>
<path d="M3000 3070 c-12 -8 -12 -10 3 -16 21 -8 35 2 21 16 -5 5 -15 6 -24 0z"/>
<path d="M2855 3020 c3 -5 15 -10 26 -10 10 0 19 5 19 10 0 6 -12 10 -26 10
-14 0 -23 -4 -19 -10z"/>
<path d="M2690 2929 c0 -28 38 -53 65 -43 26 10 16 32 -17 39 -18 4 -36 13
-40 19 -4 6 -8 0 -8 -15z"/>
<path d="M2771 2838 c1 -22 3 -26 6 -13 3 11 13 25 22 32 14 11 14 12 -6 13
-20 0 -23 -5 -22 -32z"/>
<path d="M2681 2241 c-10 -6 -9 -10 3 -14 8 -3 18 -2 21 3 8 13 -9 20 -24 11z"/>
<path d="M3645 5260 c-3 -5 -1 -10 4 -10 6 0 11 5 11 10 0 6 -2 10 -4 10 -3 0
-8 -4 -11 -10z"/>
<path d="M3418 5113 c7 -3 16 -2 19 1 4 3 -2 6 -13 5 -11 0 -14 -3 -6 -6z"/>
<path d="M3247 5073 c-12 -12 -7 -22 8 -17 8 4 15 10 15 15 0 11 -14 12 -23 2z"/>
<path d="M3150 5022 c0 -17 29 -34 47 -28 9 4 13 10 7 15 -15 14 -54 23 -54
13z"/>
<path d="M3014 4598 c-2 -4 0 -9 6 -13 5 -3 10 -3 10 1 0 4 8 0 18 -9 20 -19
32 -13 32 14 0 14 -7 18 -31 16 -17 -1 -33 -5 -35 -9z"/>
<path d="M4971 4471 c-9 -6 -8 -11 3 -20 15 -13 36 -7 36 9 0 12 -25 19 -39
11z"/>
<path d="M4674 4436 c-55 -12 -104 -45 -104 -69 0 -10 -8 -15 -20 -14 -23 1
-23 2 -10 27 7 13 6 19 -4 23 -29 11 -38 -9 -31 -66 7 -52 6 -56 -16 -59 -30
-4 -37 -28 -9 -28 13 0 31 -10 42 -22 16 -19 22 -20 39 -10 11 7 25 9 32 5 12
-7 18 -8 74 -14 17 -2 29 -7 27 -11 -10 -16 25 -20 46 -5 16 11 31 12 67 5 32
-7 53 -7 71 1 25 12 108 6 127 -9 15 -12 185 72 185 90 0 9 -14 28 -32 44 -26
22 -29 29 -17 37 8 5 24 9 35 9 29 0 37 24 16 43 -26 24 -97 27 -105 5 -2 -7
-3 -5 -2 4 3 18 -14 28 -46 28 -17 0 -18 -3 -9 -20 6 -11 8 -25 5 -30 -3 -6 3
-10 13 -10 21 0 49 -27 38 -37 -3 -3 -14 1 -24 10 -10 10 -31 17 -46 17 -14 0
-29 7 -32 15 -4 9 -19 15 -35 15 -16 0 -43 0 -59 0 -17 0 -40 5 -51 11 -12 6
-35 12 -53 14 -17 1 -38 5 -46 8 -8 2 -38 0 -66 -7z"/>
<path d="M4324 4368 c-4 -6 1 -15 10 -20 9 -5 16 -13 16 -18 0 -14 -64 -12
-78 2 -17 17 -22 7 -15 -35 6 -40 16 -45 39 -22 18 17 34 20 34 4 0 -5 5 -7
10 -4 6 3 10 15 10 26 0 10 5 19 10 19 16 0 12 18 -10 40 -13 13 -22 16 -26 8z"/>
<path d="M4407 4354 c-8 -8 1 -24 14 -24 5 0 9 7 9 15 0 15 -12 20 -23 9z"/>
<path d="M4336 4245 c-3 -9 0 -15 9 -15 9 0 12 6 9 15 -4 8 -7 15 -9 15 -2 0
-5 -7 -9 -15z"/>
<path d="M4230 4186 c25 -15 45 -12 35 5 -4 5 -18 9 -33 9 l-27 -1 25 -13z"/>
<path d="M4760 4180 c0 -5 5 -10 10 -10 6 0 10 5 10 10 0 6 -4 10 -10 10 -5 0
-10 -4 -10 -10z"/>
<path d="M4505 3980 c-3 -5 -17 -10 -30 -10 -13 0 -38 -12 -55 -26 -17 -15
-34 -24 -37 -20 -3 3 -12 1 -19 -5 -11 -9 -9 -17 9 -42 12 -18 25 -33 30 -35
16 -8 5 -23 -15 -21 -45 4 -57 -1 -72 -31 -11 -24 -12 -37 -4 -60 5 -17 14
-30 19 -30 20 0 7 -28 -18 -39 -24 -11 -26 -14 -10 -22 9 -6 17 -17 17 -24 0
-16 9 -18 35 -9 11 4 13 9 6 13 -7 5 -5 14 7 27 10 10 20 23 23 28 2 5 18 24
35 43 22 23 33 30 37 21 2 -7 -2 -20 -10 -28 -32 -35 -58 -87 -57 -115 1 -69
5 -81 32 -99 21 -14 28 -25 24 -42 -4 -22 -1 -24 33 -24 20 0 43 -7 51 -15 8
-8 20 -12 28 -9 7 3 19 -2 26 -11 16 -19 41 -19 104 0 27 8 62 15 78 15 16 0
40 7 53 16 14 9 25 12 26 8 1 -5 4 2 8 16 5 16 14 24 26 23 10 -1 27 7 38 18
21 19 27 21 86 23 19 1 36 6 38 11 3 10 -42 35 -64 35 -17 0 -16 32 2 56 20
26 19 34 -4 34 -24 0 -64 53 -59 78 2 9 14 18 28 20 14 2 29 8 34 13 18 16 88
10 132 -13 24 -12 44 -25 44 -29 0 -3 9 -9 20 -12 37 -10 34 -35 -10 -77 -23
-22 -48 -40 -56 -40 -16 0 -19 -16 -4 -25 6 -3 22 7 38 24 16 18 42 32 65 36
20 4 37 11 37 16 0 5 31 8 69 7 121 -2 114 18 -26 84 -49 23 -99 48 -113 57
-13 9 -33 17 -45 17 -35 2 -119 28 -133 42 -10 8 -36 11 -84 9 -62 -4 -71 -2
-75 14 -6 22 -15 23 -66 5 -20 -8 -40 -10 -43 -5 -3 5 -18 9 -35 9 -16 0 -29
5 -29 10 0 6 -9 10 -20 10 -12 0 -24 10 -30 23 -5 13 -9 16 -10 7 -1 -13 -2
-13 -13 0 -16 20 -68 60 -78 60 -4 0 -11 -4 -14 -10z m64 -151 c-22 -14 -33
-10 -19 6 7 8 17 12 22 9 6 -4 5 -10 -3 -15z m-69 -49 c0 -5 -4 -10 -10 -10
-5 0 -10 5 -10 10 0 6 5 10 10 10 6 0 10 -4 10 -10z"/>
<path d="M6526 3815 c4 -8 7 -15 9 -15 1 0 8 7 15 15 10 13 9 15 -8 15 -15 0
-20 -5 -16 -15z"/>
<path d="M6596 3651 c-3 -5 1 -14 9 -21 12 -10 15 -10 15 3 0 19 -16 31 -24
18z"/>
<path d="M6588 3548 c-10 -28 -13 -50 -7 -53 5 -4 10 -3 10 2 3 20 6 29 13 45
4 9 6 25 4 35 -2 11 -10 1 -20 -29z"/>
<path d="M4310 3554 c0 -8 5 -12 10 -9 6 3 10 10 10 16 0 5 -4 9 -10 9 -5 0
-10 -7 -10 -16z"/>
<path d="M6360 3188 c0 -15 -5 -30 -10 -33 -6 -3 -7 -17 -4 -31 5 -21 3 -24
-19 -24 -34 0 -59 -27 -55 -59 1 -14 -1 -32 -5 -39 -5 -7 -3 -12 7 -12 9 0 16
-6 16 -14 0 -9 14 -15 40 -18 38 -3 44 0 95 54 35 37 52 63 49 73 -4 8 -1 22
5 29 8 10 9 16 1 21 -5 3 -10 21 -10 40 l0 33 -55 4 c-54 3 -55 2 -55 -24z"/>
<path d="M4590 2701 c0 -22 48 -73 62 -65 5 3 14 1 21 -5 8 -6 18 -6 27 -1 11
7 11 11 1 24 -8 9 -22 16 -32 16 -10 0 -30 11 -45 25 -32 30 -34 30 -34 6z"/>
<path d="M3760 2590 c0 -5 5 -10 10 -10 6 0 10 5 10 10 0 6 -4 10 -10 10 -5 0
-10 -4 -10 -10z"/>
<path d="M4700 2576 c0 -22 16 -54 23 -46 2 3 9 14 15 25 10 19 11 19 21 -8 6
-16 11 -39 11 -52 0 -13 8 -32 19 -42 10 -10 22 -33 26 -51 4 -19 15 -36 26
-40 11 -4 44 -32 74 -61 29 -29 58 -50 63 -47 13 8 21 55 11 61 -16 10 -40 70
-30 73 7 2 5 15 -5 33 -8 16 -13 33 -10 38 3 4 -6 13 -19 19 -14 7 -25 17 -25
24 0 16 -55 48 -81 48 -13 0 -19 7 -19 24 0 23 -3 25 -50 24 -44 -1 -50 -4
-50 -22z"/>
<path d="M4360 2413 c-49 -8 -55 -12 -39 -28 19 -20 91 -9 87 13 -3 18 -13 21
-48 15z"/>
<path d="M5000 2341 c0 -11 4 -22 9 -25 11 -7 23 22 15 35 -9 16 -24 10 -24
-10z"/>
<path d="M3891 2124 c0 -11 3 -14 6 -6 3 7 2 16 -1 19 -3 4 -6 -2 -5 -13z"/>
<path d="M3830 1876 c0 -9 5 -16 10 -16 6 0 10 4 10 9 0 6 -4 13 -10 16 -5 3
-10 -1 -10 -9z"/>
<path d="M5180 1819 c0 -5 5 -7 10 -4 6 3 10 8 10 11 0 2 -4 4 -10 4 -5 0 -10
-5 -10 -11z"/>
<path d="M5015 1410 c-3 -5 3 -10 15 -10 12 0 18 5 15 10 -3 6 -10 10 -15 10
-5 0 -12 -4 -15 -10z"/>
<path d="M4310 1281 c0 -5 9 -11 19 -14 14 -3 18 -1 14 9 -6 15 -33 19 -33 5z"/>
<path d="M5570 829 c0 -5 5 -7 10 -4 6 3 10 8 10 11 0 2 -4 4 -10 4 -5 0 -10
-5 -10 -11z"/>
<path d="M5475 770 c-3 -5 -25 -18 -49 -29 -25 -11 -47 -28 -51 -40 -3 -12
-12 -21 -19 -21 -17 0 -52 -27 -45 -34 7 -8 179 113 179 125 0 12 -7 11 -15
-1z"/>
<path d="M4212 670 c0 -14 2 -19 5 -12 2 6 2 18 0 25 -3 6 -5 1 -5 -13z"/>
<path d="M4210 601 c0 -5 9 -12 19 -16 11 -3 22 -13 25 -22 5 -12 9 -13 21 -3
18 15 10 30 -16 30 -10 0 -19 5 -19 10 0 6 -7 10 -15 10 -8 0 -15 -4 -15 -9z"/>
</g>
</svg>
